<?xml version="1.0" encoding="UTF-8"?>
<svg version="1.1" xmlns="http://www.w3.org/2000/svg" width="1024" height="1024">
<path d="M0 0 C87.78 0 175.56 0 266 0 C270 7 270 7 270 9 C270.99 9.33 271.98 9.66 273 10 C274.38671875 12.1796875 274.38671875 12.1796875 275.6875 14.875 C276.12449219 15.75929687 276.56148438 16.64359375 277.01171875 17.5546875 C278 20 278 20 278 23 C278.99 23.33 279.98 23.66 281 24 C282.16796875 25.77734375 282.16796875 25.77734375 283.1875 27.9375 C283.53167969 28.64777344 283.87585938 29.35804688 284.23046875 30.08984375 C285 32 285 32 285 34 C285.66 34 286.32 34 287 34 C287.32613281 34.75925781 287.65226562 35.51851563 287.98828125 36.30078125 C288.42527344 37.29464844 288.86226563 38.28851563 289.3125 39.3125 C289.74175781 40.29863281 290.17101562 41.28476562 290.61328125 42.30078125 C291.80519493 44.95930578 291.80519493 44.95930578 293.51171875 46.51171875 C296.21089354 49.21089354 297.26135091 52.9309137 298.71875 56.40625 C299.94167421 58.88192584 301.03492625 60.13343918 303 62 C304.16796875 63.9375 304.16796875 63.9375 305.1875 66 C305.53167969 66.680625 305.87585938 67.36125 306.23046875 68.0625 C307 70 307 70 307 73 C307.99 73.33 308.98 73.66 310 74 C311.16796875 75.77734375 311.16796875 75.77734375 312.1875 77.9375 C312.53167969 78.64777344 312.87585938 79.35804688 313.23046875 80.08984375 C314 82 314 82 314 84 C314.66 84 315.32 84 316 84 C317.00484204 85.95585325 318.00373805 87.91476237 319 89.875 C319.8353125 91.51082031 319.8353125 91.51082031 320.6875 93.1796875 C322 96 322 96 322 98 C322.66 98 323.32 98 324 98 C324.32613281 98.75925781 324.65226562 99.51851563 324.98828125 100.30078125 C325.42527344 101.29464844 325.86226563 102.28851563 326.3125 103.3125 C326.95638672 104.79169922 326.95638672 104.79169922 327.61328125 106.30078125 C328.89720716 108.79991592 330.00674504 110.10216682 332 112 C333.16796875 113.97265625 333.16796875 113.97265625 334.1875 116.0625 C334.53167969 116.75472656 334.87585938 117.44695312 335.23046875 118.16015625 C336 120 336 120 336 122 C336.66 122 337.32 122 338 122 C338.83819158 123.62249941 339.6704116 125.24808497 340.5 126.875 C340.9640625 127.77992188 341.428125 128.68484375 341.90625 129.6171875 C343 132 343 132 343 134 C343.66 134 344.32 134 345 134 C346 135 347 136 348 137 C348.66 137 349.32 137 350 137 C350.37125 136.01 350.37125 136.01 350.75 135 C352.31817045 131.23639093 354.14505046 127.6288576 356 124 C356.66 124 357.32 124 358 124 C358.0825 123.34 358.165 122.68 358.25 122 C359.24759791 118.00960837 361.07166683 114.61450357 363 111 C363.66 111 364.32 111 365 111 C365.4021875 109.700625 365.4021875 109.700625 365.8125 108.375 C366.97111987 105.08208036 368.38209839 102.08872125 370 99 C370.66 99 371.32 99 372 99 C372.4021875 97.4221875 372.4021875 97.4221875 372.8125 95.8125 C373.87252219 92.40927088 374.91388304 89.86841082 377 87 C377.66 87 378.32 87 379 87 C379.11214844 86.44828125 379.22429687 85.8965625 379.33984375 85.328125 C380.11360773 82.59934789 381.26817694 80.27227057 382.5625 77.75 C383.01753906 76.85796875 383.47257812 75.9659375 383.94140625 75.046875 C384.29074219 74.37140625 384.64007812 73.6959375 385 73 C385.66 73 386.32 73 387 73 C387.0825 72.34 387.165 71.68 387.25 71 C388.24759791 67.00960837 390.07166683 63.61450357 392 60 C392.66 60 393.32 60 394 60 C394.268125 59.13375 394.53625 58.2675 394.8125 57.375 C395.97111987 54.08208036 397.38209839 51.08872125 399 48 C399.66 48 400.32 48 401 48 C401.2475 47.01 401.495 46.02 401.75 45 C403.10921815 40.25719624 404.92616886 35.04668675 408.4921875 31.52734375 C410.2361099 29.76083168 411.12457151 28.0483151 412.1875 25.8125 C412.53167969 25.09707031 412.87585938 24.38164062 413.23046875 23.64453125 C413.48441406 23.10183594 413.73835937 22.55914062 414 22 C414.66 22 415.32 22 416 22 C416.0825 21.34 416.165 20.68 416.25 20 C417.23853893 16.0458443 418.85258517 12.46827753 421 9 C421.66 8.67 422.32 8.34 423 8 C424.32 5.36 425.64 2.72 427 0 C515.44 0 603.88 0 695 0 C694.22998773 3.85006136 693.6738858 6.00776573 691.9375 9.3125 C691.57527344 10.00988281 691.21304688 10.70726562 690.83984375 11.42578125 C690.56269531 11.94527344 690.28554688 12.46476563 690 13 C689.34 13 688.68 13 688 13 C687.7525 13.825 687.505 14.65 687.25 15.5 C685.81295189 19.52373471 683.97645485 23.21979024 682 27 C681.34 27 680.68 27 680 27 C679.731875 27.86625 679.46375 28.7325 679.1875 29.625 C678.02888013 32.91791964 676.61790161 35.91127875 675 39 C674.34 39 673.68 39 673 39 C672.731875 40.051875 672.46375 41.10375 672.1875 42.1875 C671.12747781 45.59072912 670.08611696 48.13158918 668 51 C667.34 51 666.68 51 666 51 C665.88785156 51.55171875 665.77570312 52.1034375 665.66015625 52.671875 C664.88639227 55.40065211 663.73182306 57.72772943 662.4375 60.25 C661.98246094 61.14203125 661.52742187 62.0340625 661.05859375 62.953125 C660.70925781 63.62859375 660.35992188 64.3040625 660 65 C659.34 65 658.68 65 658 65 C657.9175 65.66 657.835 66.32 657.75 67 C656.63663698 71.45345206 654.8547279 76.20338368 651.50390625 79.44921875 C649.64958997 81.3613319 648.84140972 83.23940445 647.8125 85.6875 C647.46832031 86.49574219 647.12414062 87.30398438 646.76953125 88.13671875 C646.51558594 88.75160156 646.26164063 89.36648438 646 90 C645.34 90 644.68 90 644 90 C643.7525 90.66 643.505 91.32 643.25 92 C641.68182955 95.76360907 639.85494954 99.3711424 638 103 C637.34 103 636.68 103 636 103 C635.9175 103.66 635.835 104.32 635.75 105 C634.75240209 108.99039163 632.92833317 112.38549643 631 116 C630.34 116 629.68 116 629 116 C628.81630859 116.85851562 628.81630859 116.85851562 628.62890625 117.734375 C627.97237132 120.09953191 627.06276488 122.07206797 625.9375 124.25 C625.57527344 124.95640625 625.21304688 125.6628125 624.83984375 126.390625 C624.56269531 126.92171875 624.28554688 127.4528125 624 128 C623.34 128 622.68 128 622 128 C621.7525 128.825 621.505 129.65 621.25 130.5 C619.81295189 134.52373471 617.97645485 138.21979024 616 142 C615.34 142 614.68 142 614 142 C613.71125 143.0725 613.4225 144.145 613.125 145.25 C612 149 612 149 610 153 C626.83 153 643.66 153 661 153 C661 152.34 661 151.68 661 151 C713.14 151 765.28 151 819 151 C817.875 157.75 817.875 157.75 815.9375 161.375 C815.57527344 162.06335938 815.21304688 162.75171875 814.83984375 163.4609375 C814.56269531 163.96882812 814.28554688 164.47671875 814 165 C813.34 165 812.68 165 812 165 C811.731875 165.845625 811.46375 166.69125 811.1875 167.5625 C809.9521405 171.13854067 808.523012 174.53860908 807 178 C806.34 178 805.68 178 805 178 C804.7525 178.639375 804.505 179.27875 804.25 179.9375 C802.59188428 183.99988351 800.7964416 187.99724906 799 192 C798.34 192 797.68 192 797 192 C796.80664062 192.61488281 796.61328125 193.22976563 796.4140625 193.86328125 C796.02347656 195.07564453 796.02347656 195.07564453 795.625 196.3125 C795.36976563 197.11300781 795.11453125 197.91351563 794.8515625 198.73828125 C794 201 794 201 792 204 C791.34 204 790.68 204 790 204 C789.9175 204.66 789.835 205.32 789.75 206 C788.75240209 209.99039163 786.92833317 213.38549643 785 217 C784.34 217 783.68 217 783 217 C782.7525 217.99 782.505 218.98 782.25 220 C781.04187859 224.28095196 779.09178706 228.09059215 777 232 C776.34 232 775.68 232 775 232 C774.731875 232.845625 774.46375 233.69125 774.1875 234.5625 C772.9521405 238.13854067 771.523012 241.53860908 770 245 C769.34 245 768.68 245 768 245 C767.60941406 246.30324219 767.60941406 246.30324219 767.2109375 247.6328125 C765.99224465 251.02156488 764.49163519 253.8019805 762.625 256.875 C759.86106016 261.5027239 757.3348647 266.14348143 755 271 C754.34 271 753.68 271 753 271 C752.9175 271.66 752.835 272.32 752.75 273 C751.75240209 276.99039163 749.92833317 280.38549643 748 284 C747.34 284 746.68 284 746 284 C745.731875 284.845625 745.46375 285.69125 745.1875 286.5625 C743.9521405 290.13854067 742.523012 293.53860908 741 297 C740.34 297 739.68 297 739 297 C738.7525 297.825 738.505 298.65 738.25 299.5 C736.81295189 303.52373471 734.97645485 307.21979024 733 311 C732.34 311 731.68 311 731 311 C730.80664062 311.60328125 730.61328125 312.2065625 730.4140625 312.828125 C730.02347656 314.02695312 730.02347656 314.02695312 729.625 315.25 C729.36976563 316.03890625 729.11453125 316.8278125 728.8515625 317.640625 C728.04826333 319.86627958 727.10288338 321.90931672 726 324 C725.34 324 724.68 324 724 324 C723.731875 324.680625 723.46375 325.36125 723.1875 326.0625 C721.83946694 329.39710809 720.42463702 332.69743237 719 336 C718.34 336 717.68 336 717 336 C716.88785156 336.55171875 716.77570312 337.1034375 716.66015625 337.671875 C715.88639227 340.40065211 714.73182306 342.72772943 713.4375 345.25 C712.98246094 346.14203125 712.52742187 347.0340625 712.05859375 347.953125 C711.70925781 348.62859375 711.35992188 349.3040625 711 350 C710.34 350 709.68 350 709 350 C708.9175 350.66 708.835 351.32 708.75 352 C707.75240209 355.99039163 705.92833317 359.38549643 704 363 C703.34 363 702.68 363 702 363 C701.731875 364.03125 701.46375 365.0625 701.1875 366.125 C700.19001103 369.6485042 698.7338102 372.76880827 697 376 C696.34 376 695.68 376 695 376 C694.67 377.32 694.34 378.64 694 380 C622.72 380 551.44 380 478 380 C477.67 381.65 477.34 383.3 477 385 C476.34 385 475.68 385 475 385 C474.731875 385.86625 474.46375 386.7325 474.1875 387.625 C473.02888013 390.91791964 471.61790161 393.91127875 470 397 C469.34 397 468.68 397 468 397 C467.731875 397.680625 467.46375 398.36125 467.1875 399.0625 C466.5996875 400.5165625 466.5996875 400.5165625 466 402 C465.75894531 402.61230469 465.51789062 403.22460938 465.26953125 403.85546875 C463.22574386 408.88712807 463.22574386 408.88712807 461 410 C459.89475979 412.1560774 458.86299861 414.35024223 457.875 416.5625 C457.33617187 417.76003906 456.79734375 418.95757813 456.2421875 420.19140625 C455.62730469 421.58166016 455.62730469 421.58166016 455 423 C454.34 423 453.68 423 453 423 C452.81630859 423.85851562 452.81630859 423.85851562 452.62890625 424.734375 C451.97237132 427.09953191 451.06276488 429.07206797 449.9375 431.25 C449.57527344 431.95640625 449.21304688 432.6628125 448.83984375 433.390625 C448.56269531 433.92171875 448.28554688 434.4528125 448 435 C447.34 435 446.68 435 446 435 C445.814375 435.928125 445.62875 436.85625 445.4375 437.8125 C444.11686079 442.50599474 441.42124169 446.23399481 438.75390625 450.265625 C436.53089666 453.73134152 434.75507178 457.27924782 433 461 C432.34 461 431.68 461 431 461 C430.9175 461.66 430.835 462.32 430.75 463 C429.76146107 466.9541557 428.14741483 470.53172247 426 474 C425.01 474.495 425.01 474.495 424 475 C423.06154746 476.82287297 422.19564908 478.68364553 421.375 480.5625 C420.92898438 481.57441406 420.48296875 482.58632813 420.0234375 483.62890625 C419.68570313 484.41136719 419.34796875 485.19382812 419 486 C418.34 486 417.68 486 417 486 C416.7525 486.825 416.505 487.65 416.25 488.5 C414.81295189 492.52373471 412.97645485 496.21979024 411 500 C410.34 500 409.68 500 409 500 C408.731875 500.680625 408.46375 501.36125 408.1875 502.0625 C406.83946694 505.39710809 405.42463702 508.69743237 404 512 C403.34 512 402.68 512 402 512 C401.731875 512.86625 401.46375 513.7325 401.1875 514.625 C400.02888013 517.91791964 398.61790161 520.91127875 397 524 C396.34 524 395.68 524 395 524 C394.7525 524.825 394.505 525.65 394.25 526.5 C392.81295189 530.52373471 390.97645485 534.21979024 389 538 C388.34 538 387.68 538 387 538 C386.814375 538.928125 386.62875 539.85625 386.4375 540.8125 C385.10919946 545.54818019 382.37657211 549.33121593 379.6875 553.3984375 C377.87351929 556.1949911 376.38907084 558.97672818 375 562 C374.34 562 373.68 562 373 562 C372.88785156 562.72574219 372.77570313 563.45148437 372.66015625 564.19921875 C371.97038613 567.12563993 370.94489186 569.22287809 369.4375 571.8125 C368.75494141 572.99779297 368.75494141 572.99779297 368.05859375 574.20703125 C367.70925781 574.79871094 367.35992188 575.39039063 367 576 C366.34 576 365.68 576 365 576 C364.731875 577.03125 364.46375 578.0625 364.1875 579.125 C363.19001103 582.6485042 361.7338102 585.76880827 360 589 C359.34 589 358.68 589 358 589 C357.731875 589.886875 357.46375 590.77375 357.1875 591.6875 C356.0749365 594.7909666 354.89804222 597.31110685 353 600 C352.34 600 351.68 600 351 600 C350.855625 600.78375 350.71125 601.5675 350.5625 602.375 C350 605 350 605 349 607 C346 606 346 606 344.3125 603.0625 C343 600 343 600 343 598 C342.34 598 341.68 598 341 598 C340.15930585 596.39967863 339.32768495 594.79458829 338.5 593.1875 C338.0359375 592.29417969 337.571875 591.40085937 337.09375 590.48046875 C336 588 336 588 336 585 C335.01 584.67 334.02 584.34 333 584 C331.61328125 581.8203125 331.61328125 581.8203125 330.3125 579.125 C329.87550781 578.24070312 329.43851562 577.35640625 328.98828125 576.4453125 C328 574 328 574 328 571 C327.34 571 326.68 571 326 571 C325.51080078 569.96939453 325.51080078 569.96939453 325.01171875 568.91796875 C324.57472656 568.01691406 324.13773437 567.11585938 323.6875 566.1875 C323.04361328 564.84751953 323.04361328 564.84751953 322.38671875 563.48046875 C321.0948641 561.16968649 319.84859216 559.83875922 318 558 C316.83203125 555.80859375 316.83203125 555.80859375 315.8125 553.4375 C315.46832031 552.65246094 315.12414062 551.86742187 314.76953125 551.05859375 C314 549 314 549 314 547 C313.01 546.67 312.02 546.34 311 546 C309.61328125 543.8203125 309.61328125 543.8203125 308.3125 541.125 C307.87550781 540.24070312 307.43851562 539.35640625 306.98828125 538.4453125 C306 536 306 536 306 533 C305.34 533 304.68 533 304 533 C302.57702788 530.39121778 301.15450375 527.7822069 299.734375 525.171875 C298.5868846 523.07331147 297.43074854 520.97945009 296.265625 518.890625 C295.45351563 517.42882812 295.45351563 517.42882812 294.625 515.9375 C294.12226563 515.03902344 293.61953125 514.14054688 293.1015625 513.21484375 C292 511 292 511 292 509 C291.34 509 290.68 509 290 509 C288.99515796 507.04414675 287.99626195 505.08523763 287 503.125 C286.443125 502.03445313 285.88625 500.94390625 285.3125 499.8203125 C284 497 284 497 284 495 C283.34 495 282.68 495 282 495 C281.15930585 493.39967863 280.32768495 491.79458829 279.5 490.1875 C279.0359375 489.29417969 278.571875 488.40085937 278.09375 487.48046875 C277 485 277 485 277 482 C276.01 481.67 275.02 481.34 274 481 C272.7890625 478.99609375 272.7890625 478.99609375 271.625 476.4375 C269.68420186 472.33309306 267.52770649 468.56347502 265.0625 464.7578125 C263.76129656 462.60508622 262.91991945 460.33518015 262 458 C261.34 457.67 260.68 457.34 260 457 C259.05790983 455.22144796 258.19286047 453.40149035 257.375 451.5625 C256.92898438 450.57378906 256.48296875 449.58507812 256.0234375 448.56640625 C255 446 255 446 255 444 C254.01 443.67 253.02 443.34 252 443 C250.83203125 441.2578125 250.83203125 441.2578125 249.8125 439.125 C249.46832031 438.42632813 249.12414062 437.72765625 248.76953125 437.0078125 C248 435 248 435 248 432 C247.34 432 246.68 432 246 432 C245.56429688 431.18917969 245.12859375 430.37835937 244.6796875 429.54296875 C244.08414062 428.43566406 243.48859375 427.32835937 242.875 426.1875 C242.56167725 425.60379639 242.24835449 425.02009277 241.92553711 424.41870117 C239.3532509 419.63400242 236.72342567 414.88276692 234.06640625 410.14453125 C233 408 233 408 233 406 C232.34 406 231.68 406 231 406 C230.67386719 405.24074219 230.34773438 404.48148438 230.01171875 403.69921875 C229.57472656 402.70535156 229.13773437 401.71148438 228.6875 400.6875 C228.25824219 399.70136719 227.82898438 398.71523438 227.38671875 397.69921875 C226.19143917 395.03414256 226.19143917 395.03414256 224.45703125 393.45703125 C223 392 223 392 221 387 C150.38 386.67 79.76 386.34 7 386 C6.67 384.35 6.34 382.7 6 381 C5.34 381 4.68 381 4 381 C3.45730469 379.97519531 2.91460937 378.95039062 2.35546875 377.89453125 C1.63288255 376.53381697 0.91022238 375.17314196 0.1875 373.8125 C-0.16892578 373.13896484 -0.52535156 372.46542969 -0.89257812 371.77148438 C-2.44451265 368.85270843 -4.0003536 365.99943784 -5.76171875 363.19921875 C-7 361 -7 361 -7 358 C-7.66 357.67 -8.32 357.34 -9 357 C-16 346.5 -16 346.5 -16 342 C-16.66 342 -17.32 342 -18 342 C-18.84069415 340.39967863 -19.67231505 338.79458829 -20.5 337.1875 C-21.19609375 335.84751953 -21.19609375 335.84751953 -21.90625 334.48046875 C-23 332 -23 332 -23 329 C-23.66 329 -24.32 329 -25 329 C-26.02083333 327.10416667 -27.04166667 325.20833333 -28.0625 323.3125 C-28.37759521 322.72742676 -28.69269043 322.14235352 -29.01733398 321.53955078 C-30.61663202 318.5698232 -32.21521551 315.59971771 -33.8125 312.62890625 C-34.39 311.55511719 -34.9675 310.48132813 -35.5625 309.375 C-36.13226563 308.31410156 -36.70203125 307.25320313 -37.2890625 306.16015625 C-38.43878886 304.03657492 -39.60046654 301.91942475 -40.7734375 299.80859375 C-41.32257813 298.81988281 -41.87171875 297.83117187 -42.4375 296.8125 C-43.17806641 295.49185547 -43.17806641 295.49185547 -43.93359375 294.14453125 C-45 292 -45 292 -45 290 C-45.66 290 -46.32 290 -47 290 C-47.84069415 288.39967863 -48.67231505 286.79458829 -49.5 285.1875 C-50.19609375 283.84751953 -50.19609375 283.84751953 -50.90625 282.48046875 C-52 280 -52 280 -52 277 C-52.66 277 -53.32 277 -54 277 C-54.81498562 275.3970947 -55.62689927 273.79262722 -56.4375 272.1875 C-57.11619141 270.84751953 -57.11619141 270.84751953 -57.80859375 269.48046875 C-59 267 -59 267 -60 264 C-60.70189453 263.30390625 -60.70189453 263.30390625 -61.41796875 262.59375 C-63.28893009 260.70892969 -64.17939382 258.89860277 -65.3125 256.5 C-67.65471686 251.64418456 -70.21550381 246.94530306 -72.86328125 242.25 C-74 240 -74 240 -74 238 C-74.66 238 -75.32 238 -76 238 C-77.00460531 235.87717331 -78.00355602 233.75166979 -79 231.625 C-79.556875 230.44164062 -80.11375 229.25828125 -80.6875 228.0390625 C-82 225 -82 225 -82 223 C-82.66 223 -83.32 223 -84 223 C-84.83790789 221.21046815 -85.67019396 219.41830305 -86.5 217.625 C-86.9640625 216.62726563 -87.428125 215.62953125 -87.90625 214.6015625 C-89 212 -89 212 -89 210 C-89.66 210 -90.32 210 -91 210 C-91.84069415 208.39967863 -92.67231505 206.79458829 -93.5 205.1875 C-93.9640625 204.29417969 -94.428125 203.40085937 -94.90625 202.48046875 C-96 200 -96 200 -96 197 C-96.99 196.67 -97.98 196.34 -99 196 C-100.38671875 193.8203125 -100.38671875 193.8203125 -101.6875 191.125 C-102.12449219 190.24070312 -102.56148437 189.35640625 -103.01171875 188.4453125 C-104 186 -104 186 -104 183 C-104.66 183 -105.32 183 -106 183 C-106.37511719 182.2265625 -106.75023437 181.453125 -107.13671875 180.65625 C-109.82464752 175.18560404 -112.50135378 169.90099367 -116.01953125 164.9140625 C-117.33016512 162.35545455 -117.56953235 159.82618664 -118 157 C-98.24562639 156.97632437 -78.49125577 156.95885486 -58.73687077 156.94818783 C-49.55838092 156.94309671 -40.37990012 156.93616977 -31.20141602 156.92456055 C8.87744318 156.87483912 48.93322532 156.86154262 89 158 C88.22969878 154.51190809 88.22969878 154.51190809 87 151 C86.01 150.67 85.02 150.34 84 150 C82.61328125 147.56640625 82.61328125 147.56640625 81.3125 144.5625 C80.87550781 143.57378906 80.43851563 142.58507812 79.98828125 141.56640625 C79 139 79 139 79 137 C78.34 137 77.68 137 77 137 C76.16180842 135.37750059 75.3295884 133.75191503 74.5 132.125 C74.0359375 131.22007812 73.571875 130.31515625 73.09375 129.3828125 C72 127 72 127 72 125 C71.34 125 70.68 125 70 125 C69.16180842 123.37750059 68.3295884 121.75191503 67.5 120.125 C67.0359375 119.22007812 66.571875 118.31515625 66.09375 117.3828125 C65 115 65 115 65 113 C64.34 113 63.68 113 63 113 C61.99515796 111.04414675 60.99626195 109.08523763 60 107.125 C59.443125 106.03445313 58.88625 104.94390625 58.3125 103.8203125 C57 101 57 101 57 99 C56.34 99 55.68 99 55 99 C54.67386719 98.24074219 54.34773437 97.48148437 54.01171875 96.69921875 C53.57472656 95.70535156 53.13773438 94.71148437 52.6875 93.6875 C52.04361328 92.20830078 52.04361328 92.20830078 51.38671875 90.69921875 C50.09786122 88.1904848 48.97666951 86.92465189 47 85 C46.13456171 83.42376286 45.32539464 81.81584232 44.5625 80.1875 C42.64254818 76.2153841 40.467438 72.66135962 38 69 C36.98908844 67.04392723 36.03386602 65.06557314 35.078125 63.08203125 C33.9451027 60.89398457 32.66267036 58.87267374 31.3125 56.8125 C29.43705993 53.895788 28.32973621 51.51718629 28 48 C27.01 47.67 26.02 47.34 25 47 C23.83203125 45.2578125 23.83203125 45.2578125 22.8125 43.125 C22.29623047 42.07699219 22.29623047 42.07699219 21.76953125 41.0078125 C21 39 21 39 21 36 C20.34 36 19.68 36 19 36 C17.99515796 34.04414675 16.99626195 32.08523763 16 30.125 C15.443125 29.03445313 14.88625 27.94390625 14.3125 26.8203125 C13 24 13 24 13 22 C12.34 22 11.68 22 11 22 C10.16180842 20.37750059 9.3295884 18.75191503 8.5 17.125 C7.80390625 15.76761719 7.80390625 15.76761719 7.09375 14.3828125 C6 12 6 12 6 10 C5.34 10 4.68 10 4 10 C3.32845067 8.71086513 2.66291141 7.41859796 2 6.125 C1.62875 5.40570313 1.2575 4.68640625 0.875 3.9453125 C0 2 0 2 0 0 Z " fill="#40B782" transform="translate(158,227)"/>
<path d="M0 0 C42.57 0 85.14 0 129 0 C133 7 133 7 133 9 C133.99 9.33 134.98 9.66 136 10 C137.38671875 12.1796875 137.38671875 12.1796875 138.6875 14.875 C139.12449219 15.75929687 139.56148437 16.64359375 140.01171875 17.5546875 C141 20 141 20 141 23 C141.99 23.33 142.98 23.66 144 24 C145.16796875 25.77734375 145.16796875 25.77734375 146.1875 27.9375 C146.53167969 28.64777344 146.87585938 29.35804688 147.23046875 30.08984375 C148 32 148 32 148 34 C148.66 34 149.32 34 150 34 C150.32613281 34.75925781 150.65226563 35.51851563 150.98828125 36.30078125 C151.42527344 37.29464844 151.86226562 38.28851563 152.3125 39.3125 C152.74175781 40.29863281 153.17101562 41.28476562 153.61328125 42.30078125 C154.80519493 44.95930578 154.80519493 44.95930578 156.51171875 46.51171875 C159.21089354 49.21089354 160.26135091 52.9309137 161.71875 56.40625 C162.94167421 58.88192584 164.03492625 60.13343918 166 62 C167.16796875 63.9375 167.16796875 63.9375 168.1875 66 C168.53167969 66.680625 168.87585938 67.36125 169.23046875 68.0625 C170 70 170 70 170 73 C170.99 73.33 171.98 73.66 173 74 C174.16796875 75.77734375 174.16796875 75.77734375 175.1875 77.9375 C175.53167969 78.64777344 175.87585938 79.35804688 176.23046875 80.08984375 C177 82 177 82 177 84 C177.66 84 178.32 84 179 84 C180.00484204 85.95585325 181.00373805 87.91476237 182 89.875 C182.556875 90.96554687 183.11375 92.05609375 183.6875 93.1796875 C185 96 185 96 185 98 C185.66 98 186.32 98 187 98 C187.32613281 98.75925781 187.65226563 99.51851563 187.98828125 100.30078125 C188.42527344 101.29464844 188.86226562 102.28851563 189.3125 103.3125 C189.95638672 104.79169922 189.95638672 104.79169922 190.61328125 106.30078125 C191.89720716 108.79991592 193.00674504 110.10216682 195 112 C196.16796875 113.97265625 196.16796875 113.97265625 197.1875 116.0625 C197.53167969 116.75472656 197.87585938 117.44695312 198.23046875 118.16015625 C199 120 199 120 199 122 C199.66 122 200.32 122 201 122 C201.83819158 123.62249941 202.6704116 125.24808497 203.5 126.875 C203.9640625 127.77992188 204.428125 128.68484375 204.90625 129.6171875 C206 132 206 132 206 134 C206.66 134 207.32 134 208 134 C209 135 210 136 211 137 C211.66 137 212.32 137 213 137 C213.37125 136.01 213.37125 136.01 213.75 135 C215.31817045 131.23639093 217.14505046 127.6288576 219 124 C219.66 124 220.32 124 221 124 C221.0825 123.34 221.165 122.68 221.25 122 C222.24759791 118.00960837 224.07166683 114.61450357 226 111 C226.66 111 227.32 111 228 111 C228.4021875 109.700625 228.4021875 109.700625 228.8125 108.375 C229.97111987 105.08208036 231.38209839 102.08872125 233 99 C233.66 99 234.32 99 235 99 C235.4021875 97.4221875 235.4021875 97.4221875 235.8125 95.8125 C236.87252219 92.40927088 237.91388304 89.86841082 240 87 C240.66 87 241.32 87 242 87 C242.11214844 86.44828125 242.22429687 85.8965625 242.33984375 85.328125 C243.11360773 82.59934789 244.26817694 80.27227057 245.5625 77.75 C246.01753906 76.85796875 246.47257813 75.9659375 246.94140625 75.046875 C247.29074219 74.37140625 247.64007812 73.6959375 248 73 C248.66 73 249.32 73 250 73 C250.0825 72.34 250.165 71.68 250.25 71 C251.24759791 67.00960837 253.07166683 63.61450357 255 60 C255.66 60 256.32 60 257 60 C257.268125 59.13375 257.53625 58.2675 257.8125 57.375 C258.97111987 54.08208036 260.38209839 51.08872125 262 48 C262.66 48 263.32 48 264 48 C264.37125 46.515 264.37125 46.515 264.75 45 C266.10921815 40.25719624 267.92616886 35.04668675 271.4921875 31.52734375 C273.2361099 29.76083168 274.12457151 28.0483151 275.1875 25.8125 C275.53167969 25.09707031 275.87585938 24.38164062 276.23046875 23.64453125 C276.48441406 23.10183594 276.73835938 22.55914062 277 22 C277.66 22 278.32 22 279 22 C279.0825 21.34 279.165 20.68 279.25 20 C280.23853893 16.0458443 281.85258517 12.46827753 284 9 C284.66 8.67 285.32 8.34 286 8 C287.32 5.36 288.64 2.72 290 0 C332.57 0 375.14 0 419 0 C417.34953732 4.12615671 415.59262691 7.61629028 413.375 11.4375 C412.64963754 12.69264937 411.92437991 13.94785932 411.19921875 15.203125 C410.83103027 15.83798828 410.4628418 16.47285156 410.08349609 17.12695312 C408.43745721 19.97247144 406.81376182 22.83064418 405.1875 25.6875 C402.94181245 29.62528962 400.68122859 33.55397421 398.40234375 37.47265625 C393.34340763 46.17284047 388.35567373 54.90344207 383.49316406 63.71508789 C381.17605822 67.90730561 378.81204684 72.06326688 376.375 76.1875 C372.35783542 83.00421603 368.68235102 89.99875079 365 97 C364.34 97 363.68 97 363 97 C362.73832031 97.86753906 362.47664063 98.73507812 362.20703125 99.62890625 C360.99178495 103.02294366 359.51522061 105.83389734 357.6875 108.9375 C356.97706708 110.15708787 356.2674989 111.3771797 355.55859375 112.59765625 C355.1601123 113.28102051 354.76163086 113.96438477 354.35107422 114.66845703 C351.61782548 119.38521263 348.93638582 124.13145488 346.25 128.875 C345.41795044 130.33667603 345.41795044 130.33667603 344.5690918 131.82788086 C341.55310281 137.15040198 338.67863912 142.49968764 336 148 C335.34 148 334.68 148 334 148 C333.74476563 148.8559375 333.48953125 149.711875 333.2265625 150.59375 C331.93371754 154.18407105 330.30444916 157.20994326 328.375 160.5 C327.6560594 161.734264 326.93731509 162.96864235 326.21875 164.203125 C325.66767578 165.14381836 325.66767578 165.14381836 325.10546875 166.10351562 C323.68029407 168.54847078 322.2827423 171.00860006 320.88574219 173.46972656 C318.35330365 177.93024391 315.79504702 182.36992287 313.125 186.75 C309.87411268 192.12103122 306.85707722 197.61755438 303.81958008 203.11083984 C298.85613136 212.08326377 293.78354597 220.98701632 288.5625 229.8125 C284.11463153 237.40064598 280.07235642 245.20619316 276 253 C275.34 253 274.68 253 274 253 C273.79632812 253.763125 273.59265625 254.52625 273.3828125 255.3125 C271.42657739 260.52912695 268.65328576 265.18166764 265.875 270 C265.29186035 271.02150146 264.7087207 272.04300293 264.10791016 273.09545898 C262.41053242 276.06669216 260.70642147 279.0339537 259 282 C257.7909997 284.10564624 256.58251804 286.21158299 255.37548828 288.31835938 C254.44868603 289.93404392 253.51749958 291.54721142 252.5859375 293.16015625 C250.96359598 296.06518651 249.46473433 299.01282968 248 302 C247.34 302 246.68 302 246 302 C245.74734375 302.85078125 245.4946875 303.7015625 245.234375 304.578125 C243.90856228 308.25347925 242.2188362 311.37703256 240.25 314.75 C239.89437988 315.36270752 239.53875977 315.97541504 239.17236328 316.60668945 C236.63985273 320.95634747 234.03866206 325.26383102 231.43359375 329.5703125 C228.83245735 333.97877801 226.43116458 338.49636725 224 343 C222.79676976 345.20213835 221.58460627 347.39815227 220.35546875 349.5859375 C219.3037208 351.45907938 218.26775888 353.34108907 217.23828125 355.2265625 C216.62339844 356.32742188 216.00851562 357.42828125 215.375 358.5625 C214.80523437 359.59503906 214.23546875 360.62757813 213.6484375 361.69140625 C213.10445312 362.45324219 212.56046875 363.21507812 212 364 C211.01 364 210.02 364 209 364 C208.43152344 362.98421875 207.86304688 361.9684375 207.27734375 360.921875 C202.59502089 352.56830117 197.85261609 344.2561871 193 336 C189.66067098 330.30730764 186.32214401 324.61380987 183.0625 318.875 C182.66160156 318.17117188 182.26070312 317.46734375 181.84765625 316.7421875 C181 315 181 315 181 313 C180.34 313 179.68 313 179 313 C178.16180842 311.37750059 177.3295884 309.75191503 176.5 308.125 C176.0359375 307.22007812 175.571875 306.31515625 175.09375 305.3828125 C174 303 174 303 174 301 C173.34 301 172.68 301 172 301 C170.99515796 299.04414675 169.99626195 297.08523763 169 295.125 C168.443125 294.03445313 167.88625 292.94390625 167.3125 291.8203125 C166 289 166 289 166 287 C165.34 287 164.68 287 164 287 C162.99515796 285.04414675 161.99626195 283.08523763 161 281.125 C160.443125 280.03445313 159.88625 278.94390625 159.3125 277.8203125 C158 275 158 275 158 273 C157.34 273 156.68 273 156 273 C155.46632813 271.97003906 154.93265625 270.94007813 154.3828125 269.87890625 C148.42521402 258.46130262 142.05129264 247.33767581 135.37890625 236.32421875 C133.96058758 233.9335683 132.62897225 231.51061029 131.3125 229.0625 C127.97974126 222.92364069 124.51587088 216.86347947 121.03662109 210.80712891 C120.00712391 209.01241902 118.98138286 207.21561985 117.95703125 205.41796875 C114.74659446 199.78461919 111.52015544 194.16150814 108.25 188.5625 C107.68667969 187.59699219 107.12335938 186.63148438 106.54296875 185.63671875 C105.59194876 184.011558 104.63704631 182.38865322 103.67578125 180.76953125 C101 176.21600877 101 176.21600877 101 174 C100.34 174 99.68 174 99 174 C97.99515796 172.04414675 96.99626195 170.08523763 96 168.125 C95.443125 167.03445313 94.88625 165.94390625 94.3125 164.8203125 C93 162 93 162 93 160 C92.34 160 91.68 160 91 160 C89.99515796 158.04414675 88.99626195 156.08523763 88 154.125 C87.443125 153.03445313 86.88625 151.94390625 86.3125 150.8203125 C85 148 85 148 85 146 C84.34 146 83.68 146 83 146 C82.5875 145.22398437 82.175 144.44796875 81.75 143.6484375 C75.72500145 132.37846254 69.37543169 121.31360482 62.875 110.3125 C59.63169268 104.82288391 56.45966596 99.3095339 53.44921875 93.6875 C49.67883826 86.69552756 45.74857452 79.80093979 41.75 72.9375 C37.80094724 66.14196948 33.90970729 59.31789149 30.08105469 52.45385742 C27.53332206 47.90109412 24.87318152 43.43183287 22.09375 39.015625 C21.00327562 37.0060365 20.44282558 35.23425631 20 33 C19.34 33 18.68 33 18 33 C17.5153125 32.07960938 17.030625 31.15921875 16.53125 30.2109375 C12.38178154 22.36411931 8.11187615 14.60756299 3.6640625 6.92578125 C2.37283721 4.65552833 1.16801636 2.33603272 0 0 Z " fill="#35495E" transform="translate(295,227)"/>
<path d="M0 0 C1.41726827 0.0102994 2.83456239 0.01743272 4.25186157 0.02172852 C7.37659957 0.03822098 10.49999053 0.07750692 13.62426758 0.13354492 C18.71487214 0.2247972 23.80524393 0.26852891 28.89648438 0.30664062 C35.71301261 0.36194384 42.52915933 0.43284026 49.34537888 0.51804352 C66.15901662 0.7279955 82.97284491 0.84480884 99.78737116 0.95367241 C106.74383257 0.99884317 113.70028513 1.04537426 120.65673828 1.09179688 C121.42389058 1.09689805 122.19104288 1.10199923 122.98144221 1.10725498 C140.33410476 1.22289236 157.68658961 1.35902378 175.0390625 1.5 C175.72757561 1.50558426 176.41608872 1.51116852 177.12546587 1.516922 C185.33625365 1.58352377 193.54703644 1.65071876 201.7578125 1.71875 C201.7578125 2.37875 201.7578125 3.03875 201.7578125 3.71875 C201.0978125 3.71875 200.4378125 3.71875 199.7578125 3.71875 C199.4896875 4.399375 199.2215625 5.08 198.9453125 5.78125 C197.59727944 9.11585809 196.18244952 12.41618237 194.7578125 15.71875 C194.0978125 15.71875 193.4378125 15.71875 192.7578125 15.71875 C192.64566406 16.27046875 192.53351563 16.8221875 192.41796875 17.390625 C191.64420477 20.11940211 190.48963556 22.44647943 189.1953125 24.96875 C188.74027344 25.86078125 188.28523437 26.7528125 187.81640625 27.671875 C187.29240234 28.68507813 187.29240234 28.68507813 186.7578125 29.71875 C186.0978125 29.71875 185.4378125 29.71875 184.7578125 29.71875 C184.6753125 30.37875 184.5928125 31.03875 184.5078125 31.71875 C183.51021459 35.70914163 181.68614567 39.10424643 179.7578125 42.71875 C179.0978125 42.71875 178.4378125 42.71875 177.7578125 42.71875 C177.4896875 43.75 177.2215625 44.78125 176.9453125 45.84375 C175.94782353 49.3672542 174.4916227 52.48755827 172.7578125 55.71875 C172.0978125 55.71875 171.4378125 55.71875 170.7578125 55.71875 C170.4278125 57.03875 170.0978125 58.35875 169.7578125 59.71875 C98.1478125 59.71875 26.5378125 59.71875 -47.2421875 59.71875 C-45.6835306 55.82210776 -44.12330919 52.65521913 -41.9921875 49.09375 C-38.60608268 43.3721557 -35.38917489 37.57468257 -32.2421875 31.71875 C-31.5821875 31.71875 -30.9221875 31.71875 -30.2421875 31.71875 C-30.01144531 30.91308594 -29.78070312 30.10742188 -29.54296875 29.27734375 C-27.92107454 24.84026979 -25.74447548 20.88923161 -23.4296875 16.78125 C-23.00365234 16.00845703 -22.57761719 15.23566406 -22.13867188 14.43945312 C-20.87174314 12.17201485 -19.6081669 9.92840232 -18.2421875 7.71875 C-17.97466675 7.12210541 -17.707146 6.52546082 -17.43151855 5.91073608 C-13.58752754 -1.30310181 -7.39171315 -0.18800331 0 0 Z " fill="#35495E" transform="translate(682.2421875,547.28125)"/>
<path d="M0 0 C1.13061513 0.00063635 1.13061513 0.00063635 2.28407097 0.00128555 C21.81439301 0.01246245 41.34469698 0.03272866 60.875 0.0625 C64.875 6.8125 64.875 6.8125 64.875 9.0625 C65.535 9.0625 66.195 9.0625 66.875 9.0625 C67.71569415 10.66282137 68.54731505 12.26791171 69.375 13.875 C69.8390625 14.76832031 70.303125 15.66164063 70.78125 16.58203125 C71.875 19.0625 71.875 19.0625 71.875 22.0625 C72.865 22.3925 73.855 22.7225 74.875 23.0625 C76.26171875 25.2421875 76.26171875 25.2421875 77.5625 27.9375 C77.99949219 28.82179688 78.43648437 29.70609375 78.88671875 30.6171875 C79.875 33.0625 79.875 33.0625 79.875 36.0625 C80.535 36.0625 81.195 36.0625 81.875 36.0625 C82.71319158 37.68499941 83.5454116 39.31058497 84.375 40.9375 C84.8390625 41.84242188 85.303125 42.74734375 85.78125 43.6796875 C86.875 46.0625 86.875 46.0625 86.875 48.0625 C87.535 48.0625 88.195 48.0625 88.875 48.0625 C89.54908308 49.32941507 90.21400497 50.60120749 90.875 51.875 C91.24625 52.58269531 91.6175 53.29039062 92 54.01953125 C92.875 56.0625 92.875 56.0625 92.875 59.0625 C22.255 59.0625 -48.365 59.0625 -121.125 59.0625 C-121.62 56.5875 -121.62 56.5875 -122.125 54.0625 C-122.785 54.0625 -123.445 54.0625 -124.125 54.0625 C-124.66769531 53.03769531 -125.21039063 52.01289062 -125.76953125 50.95703125 C-126.49211745 49.59631697 -127.21477762 48.23564196 -127.9375 46.875 C-128.29392578 46.20146484 -128.65035156 45.52792969 -129.01757812 44.83398438 C-130.56951265 41.91520843 -132.1253536 39.06193784 -133.88671875 36.26171875 C-135.125 34.0625 -135.125 34.0625 -135.125 31.0625 C-135.785 30.7325 -136.445 30.4025 -137.125 30.0625 C-144.125 19.5625 -144.125 19.5625 -144.125 15.0625 C-144.785 15.0625 -145.445 15.0625 -146.125 15.0625 C-146.96569415 13.46217863 -147.79731505 11.85708829 -148.625 10.25 C-149.32109375 8.91001953 -149.32109375 8.91001953 -150.03125 7.54296875 C-151.125 5.0625 -151.125 5.0625 -151.125 2.0625 C-151.785 1.7325 -152.445 1.4025 -153.125 1.0625 C-142.20860755 0.87622264 -131.29194008 0.7129735 -120.375 0.5625 C-119.51405983 0.55062275 -118.65311966 0.5387455 -117.76609039 0.52650833 C-78.51122375 -0.00720698 -39.25761051 -0.02274525 0 0 Z " fill="#35495E" transform="translate(286.125,553.9375)"/>
<path d="M0 0 C19.73710288 -0.02368331 39.47420277 -0.0411487 59.21131706 -0.05181217 C68.38193116 -0.05690175 77.55253619 -0.06382877 86.72314453 -0.07543945 C157.27288223 -0.16284524 157.27288223 -0.16284524 187.8828125 0.44140625 C188.92295376 0.46093794 189.96309502 0.48046963 191.03475571 0.50059319 C193.87637813 0.55612814 196.71770505 0.61896869 199.55908203 0.68579102 C200.37105671 0.70231028 201.18303139 0.71882954 202.01961136 0.73584938 C208.985717 0.92190747 208.985717 0.92190747 212 2 C215 7.03571429 215 7.03571429 215 10 C215.66 10 216.32 10 217 10 C218.00484204 11.95585325 219.00373805 13.91476237 220 15.875 C220.556875 16.96554687 221.11375 18.05609375 221.6875 19.1796875 C223 22 223 22 223 24 C223.66 24 224.32 24 225 24 C225.35191406 24.65484375 225.70382812 25.3096875 226.06640625 25.984375 C232.66685082 38.20930886 232.66685082 38.20930886 240 50 C240 50.99 240 51.98 240 53 C169.71 53 99.42 53 27 53 C22 43 22 43 22 40 C20.515 39.505 20.515 39.505 19 39 C17.61328125 36.8203125 17.61328125 36.8203125 16.3125 34.125 C15.87550781 33.24070312 15.43851563 32.35640625 14.98828125 31.4453125 C14 29 14 29 14 26 C13.34 26 12.68 26 12 26 C11.62488281 25.2265625 11.24976563 24.453125 10.86328125 23.65625 C8.17535248 18.18560404 5.49864622 12.90099367 1.98046875 7.9140625 C0.66983488 5.35545455 0.43046765 2.82618664 0 0 Z " fill="#35495E" transform="translate(40,384)"/>
<path d="M0 0 C52.14 0 104.28 0 158 0 C156.875 6.75 156.875 6.75 154.9375 10.375 C154.57527344 11.06335938 154.21304688 11.75171875 153.83984375 12.4609375 C153.56269531 12.96882813 153.28554688 13.47671875 153 14 C152.34 14 151.68 14 151 14 C150.731875 14.845625 150.46375 15.69125 150.1875 16.5625 C148.9521405 20.13854067 147.523012 23.53860908 146 27 C145.34 27 144.68 27 144 27 C143.62875 27.9590625 143.62875 27.9590625 143.25 28.9375 C141.59188428 32.99988351 139.7964416 36.99724906 138 41 C137.34 41 136.68 41 136 41 C135.70996094 41.92232422 135.70996094 41.92232422 135.4140625 42.86328125 C135.15367187 43.67152344 134.89328125 44.47976563 134.625 45.3125 C134.36976563 46.11300781 134.11453125 46.91351563 133.8515625 47.73828125 C133 50 133 50 131 53 C128.15268861 53.29420247 125.52281567 53.39102257 122.67318726 53.36076355 C121.80168175 53.36332682 120.93017625 53.3658901 120.03226149 53.36853105 C117.09472788 53.37349571 114.15770156 53.35693198 111.22021484 53.34057617 C109.12142448 53.33973048 107.02263323 53.34020391 104.92384338 53.34190369 C99.21125699 53.34276732 93.49885811 53.32508209 87.78631544 53.30418181 C81.82187815 53.28547621 75.85743695 53.28366941 69.89297485 53.28010559 C58.59176466 53.2707671 47.29064113 53.24612895 35.98946917 53.21605712 C23.12631815 53.18256916 10.26316308 53.16604122 -2.60002065 53.15097082 C-29.06672855 53.11958095 -55.53335943 53.06678547 -82 53 C-81.12859081 49.06675416 -79.47709583 46.11346724 -77.4375 42.625 C-76.71082188 41.37376506 -75.98426283 40.12246096 -75.2578125 38.87109375 C-74.88430664 38.23155762 -74.51080078 37.59202148 -74.12597656 36.93310547 C-72.33685572 33.86149688 -70.57460078 30.77466337 -68.8125 27.6875 C-68.15894531 26.54410156 -67.50539063 25.40070313 -66.83203125 24.22265625 C-64.52510891 20.16463722 -62.2503714 16.08961725 -60 12 C-59.34 12 -58.68 12 -58 12 C-57.731875 11.113125 -57.46375 10.22625 -57.1875 9.3125 C-56 6 -56 6 -53 1 C-35.51 1.33 -18.02 1.66 0 2 C0 1.34 0 0.68 0 0 Z " fill="#35495E" transform="translate(819,378)"/>
<path d="M0 0 C0.33 0.66 0.66 1.32 1 2 C0.0625 4.125 0.0625 4.125 -1 6 C-0.36308731 5.99770889 0.27382538 5.99541779 0.93003845 5.99305725 C19.31597852 5.93686904 37.69284814 6.10206329 56.07641602 6.37231445 C59.05458151 6.41603599 62.03276333 6.45770411 65.01098633 6.49731445 C86.6818103 6.78563772 108.33858689 7.29844453 130 8 C130 8.33 130 8.66 130 9 C97.53605771 9.13970844 65.08587109 8.92651002 32.625 8.5 C31.71459961 8.48804218 30.80419922 8.47608437 29.86621094 8.46376419 C18.57739249 8.31495755 7.28866121 8.16028551 -4 8 C-2.25 2.25 -2.25 2.25 0 0 Z " fill="#3D9878" transform="translate(673,540)"/>
<path d="M0 0 C0.33 0.66 0.66 1.32 1 2 C3.02463255 2.65213292 3.02463255 2.65213292 5 3 C3.35 3 1.7 3 0 3 C0 2.01 0 1.02 0 0 Z " fill="#3A6768" transform="translate(142,595)"/>
<path d="" fill="#609C82" transform="translate(0,0)"/>
<path d="" fill="#609C81" transform="translate(0,0)"/>
<path d="" fill="#43B985" transform="translate(0,0)"/>
<path d="" fill="#4BB196" transform="translate(0,0)"/>
<path d="" fill="#35495E" transform="translate(0,0)"/>
<path d="" fill="#35495E" transform="translate(0,0)"/>
<path d="" fill="#35495E" transform="translate(0,0)"/>
<path d="" fill="#35495E" transform="translate(0,0)"/>
<path d="" fill="#354A5E" transform="translate(0,0)"/>
<path d="" fill="#35495E" transform="translate(0,0)"/>
<path d="" fill="#354F60" transform="translate(0,0)"/>
<path d="" fill="#35495E" transform="translate(0,0)"/>
<path d="" fill="#3EA17C" transform="translate(0,0)"/>
<path d="" fill="#375D65" transform="translate(0,0)"/>
<path d="" fill="#41B883" transform="translate(0,0)"/>
<path d="" fill="#40AE80" transform="translate(0,0)"/>
<path d="" fill="#41B883" transform="translate(0,0)"/>
<path d="" fill="#41B883" transform="translate(0,0)"/>
<path d="" fill="#41B782" transform="translate(0,0)"/>
<path d="" fill="#40B883" transform="translate(0,0)"/>
<path d="" fill="#41B883" transform="translate(0,0)"/>
<path d="" fill="#41B883" transform="translate(0,0)"/>
<path d="" fill="#41B883" transform="translate(0,0)"/>
<path d="" fill="#41B883" transform="translate(0,0)"/>
<path d="" fill="#41B883" transform="translate(0,0)"/>
<path d="" fill="#41B883" transform="translate(0,0)"/>
<path d="" fill="#41B883" transform="translate(0,0)"/>
<path d="" fill="#41B883" transform="translate(0,0)"/>
<path d="" fill="#41B883" transform="translate(0,0)"/>
<path d="" fill="#41B883" transform="translate(0,0)"/>
<path d="" fill="#41B883" transform="translate(0,0)"/>
<path d="" fill="#41B883" transform="translate(0,0)"/>
<path d="" fill="#41B883" transform="translate(0,0)"/>
<path d="" fill="#41B883" transform="translate(0,0)"/>
<path d="" fill="#41B883" transform="translate(0,0)"/>
<path d="" fill="#41B883" transform="translate(0,0)"/>
<path d="" fill="#41B883" transform="translate(0,0)"/>
<path d="" fill="#41B883" transform="translate(0,0)"/>
<path d="" fill="#41B883" transform="translate(0,0)"/>
<path d="" fill="#41B883" transform="translate(0,0)"/>
<path d="" fill="#41B883" transform="translate(0,0)"/>
<path d="" fill="#41B883" transform="translate(0,0)"/>
<path d="" fill="#41B883" transform="translate(0,0)"/>
<path d="" fill="#41B883" transform="translate(0,0)"/>
<path d="" fill="#41B883" transform="translate(0,0)"/>
<path d="" fill="#41B883" transform="translate(0,0)"/>
<path d="" fill="#41B883" transform="translate(0,0)"/>
<path d="" fill="#41B883" transform="translate(0,0)"/>
<path d="" fill="#41B883" transform="translate(0,0)"/>
<path d="" fill="#41B883" transform="translate(0,0)"/>
<path d="" fill="#41B883" transform="translate(0,0)"/>
<path d="" fill="#41B883" transform="translate(0,0)"/>
<path d="" fill="#41B883" transform="translate(0,0)"/>
<path d="" fill="#41B883" transform="translate(0,0)"/>
<path d="" fill="#41B883" transform="translate(0,0)"/>
<path d="" fill="#41B883" transform="translate(0,0)"/>
<path d="" fill="#41B883" transform="translate(0,0)"/>
<path d="" fill="#41B883" transform="translate(0,0)"/>
<path d="" fill="#41B883" transform="translate(0,0)"/>
<path d="" fill="#35495E" transform="translate(0,0)"/>
<path d="" fill="#41B883" transform="translate(0,0)"/>
<path d="" fill="#41B883" transform="translate(0,0)"/>
<path d="" fill="#35495E" transform="translate(0,0)"/>
<path d="" fill="#41B883" transform="translate(0,0)"/>
<path d="" fill="#41B883" transform="translate(0,0)"/>
<path d="" fill="#35495E" transform="translate(0,0)"/>
<path d="" fill="#41B883" transform="translate(0,0)"/>
<path d="" fill="#41B883" transform="translate(0,0)"/>
<path d="" fill="#41B883" transform="translate(0,0)"/>
<path d="" fill="#41B883" transform="translate(0,0)"/>
<path d="" fill="#41B883" transform="translate(0,0)"/>
<path d="" fill="#43B982" transform="translate(0,0)"/>
<path d="" fill="#20DBC0" transform="translate(0,0)"/>
<path d="" fill="#41B883" transform="translate(0,0)"/>
<path d="" fill="#47B581" transform="translate(0,0)"/>
<path d="" fill="#41B883" transform="translate(0,0)"/>
<path d="" fill="#42B981" transform="translate(0,0)"/>
<path d="" fill="#44BB80" transform="translate(0,0)"/>
<path d="" fill="#40B784" transform="translate(0,0)"/>
<path d="" fill="#46B98B" transform="translate(0,0)"/>
<path d="" fill="#42B584" transform="translate(0,0)"/>
<path d="" fill="#43B882" transform="translate(0,0)"/>
<path d="" fill="#49B680" transform="translate(0,0)"/>
<path d="" fill="#40B780" transform="translate(0,0)"/>
<path d="" fill="#41B682" transform="translate(0,0)"/>
<path d="" fill="#3EBA83" transform="translate(0,0)"/>
<path d="" fill="#43B981" transform="translate(0,0)"/>
<path d="" fill="#35495E" transform="translate(0,0)"/>
<path d="" fill="#35495E" transform="translate(0,0)"/>
<path d="" fill="#35495E" transform="translate(0,0)"/>
<path d="" fill="#35495E" transform="translate(0,0)"/>
<path d="" fill="#35495E" transform="translate(0,0)"/>
<path d="" fill="#35495E" transform="translate(0,0)"/>
<path d="" fill="#35495E" transform="translate(0,0)"/>
<path d="" fill="#35495E" transform="translate(0,0)"/>
<path d="" fill="#35495E" transform="translate(0,0)"/>
<path d="" fill="#35495E" transform="translate(0,0)"/>
<path d="" fill="#35495E" transform="translate(0,0)"/>
<path d="" fill="#35495E" transform="translate(0,0)"/>
<path d="" fill="#35495E" transform="translate(0,0)"/>
<path d="" fill="#35495E" transform="translate(0,0)"/>
<path d="" fill="#35495E" transform="translate(0,0)"/>
<path d="" fill="#35495E" transform="translate(0,0)"/>
<path d="" fill="#35495E" transform="translate(0,0)"/>
<path d="" fill="#35495E" transform="translate(0,0)"/>
<path d="" fill="#35495E" transform="translate(0,0)"/>
<path d="" fill="#35495E" transform="translate(0,0)"/>
<path d="" fill="#35495E" transform="translate(0,0)"/>
<path d="" fill="#35495E" transform="translate(0,0)"/>
<path d="" fill="#35495E" transform="translate(0,0)"/>
<path d="" fill="#35495E" transform="translate(0,0)"/>
<path d="" fill="#35495E" transform="translate(0,0)"/>
<path d="" fill="#35495E" transform="translate(0,0)"/>
<path d="" fill="#35495E" transform="translate(0,0)"/>
<path d="" fill="#35495E" transform="translate(0,0)"/>
<path d="" fill="#35495E" transform="translate(0,0)"/>
<path d="" fill="#354A5E" transform="translate(0,0)"/>
<path d="" fill="#35495E" transform="translate(0,0)"/>
<path d="" fill="#354C5E" transform="translate(0,0)"/>
<path d="" fill="#35495E" transform="translate(0,0)"/>
<path d="" fill="#35495E" transform="translate(0,0)"/>
<path d="" fill="#35495E" transform="translate(0,0)"/>
<path d="" fill="#35495E" transform="translate(0,0)"/>
<path d="" fill="#35495E" transform="translate(0,0)"/>
<path d="" fill="#354F60" transform="translate(0,0)"/>
<path d="" fill="#35495E" transform="translate(0,0)"/>
<path d="" fill="#375964" transform="translate(0,0)"/>
<path d="" fill="#35495E" transform="translate(0,0)"/>
<path d="" fill="#35495E" transform="translate(0,0)"/>
<path d="" fill="#354A5F" transform="translate(0,0)"/>
<path d="" fill="#35495E" transform="translate(0,0)"/>
<path d="" fill="#355160" transform="translate(0,0)"/>
<path d="" fill="#35495E" transform="translate(0,0)"/>
<path d="" fill="#365C64" transform="translate(0,0)"/>
<path d="" fill="#3FA37C" transform="translate(0,0)"/>
<path d="" fill="#41B883" transform="translate(0,0)"/>
<path d="" fill="#3EA37B" transform="translate(0,0)"/>
<path d="" fill="#41B883" transform="translate(0,0)"/>
<path d="" fill="#3FA57C" transform="translate(0,0)"/>
<path d="" fill="#41B883" transform="translate(0,0)"/>
<path d="" fill="#41B883" transform="translate(0,0)"/>
<path d="" fill="#41B883" transform="translate(0,0)"/>
<path d="" fill="#41B883" transform="translate(0,0)"/>
<path d="" fill="#41B782" transform="translate(0,0)"/>
<path d="" fill="#41B883" transform="translate(0,0)"/>
<path d="" fill="#41B883" transform="translate(0,0)"/>
<path d="" fill="#41B883" transform="translate(0,0)"/>
<path d="" fill="#41B883" transform="translate(0,0)"/>
<path d="" fill="#41B883" transform="translate(0,0)"/>
<path d="" fill="#41B883" transform="translate(0,0)"/>
<path d="" fill="#41B883" transform="translate(0,0)"/>
<path d="" fill="#41B883" transform="translate(0,0)"/>
<path d="" fill="#41B883" transform="translate(0,0)"/>
<path d="" fill="#41B883" transform="translate(0,0)"/>
<path d="" fill="#41B883" transform="translate(0,0)"/>
<path d="" fill="#41B883" transform="translate(0,0)"/>
<path d="" fill="#41B883" transform="translate(0,0)"/>
<path d="" fill="#41B883" transform="translate(0,0)"/>
<path d="" fill="#41B883" transform="translate(0,0)"/>
<path d="" fill="#41B883" transform="translate(0,0)"/>
<path d="" fill="#41B883" transform="translate(0,0)"/>
<path d="" fill="#41B883" transform="translate(0,0)"/>
<path d="" fill="#41B883" transform="translate(0,0)"/>
<path d="" fill="#41B883" transform="translate(0,0)"/>
<path d="" fill="#41B883" transform="translate(0,0)"/>
<path d="" fill="#41B883" transform="translate(0,0)"/>
<path d="" fill="#41B883" transform="translate(0,0)"/>
<path d="" fill="#41B883" transform="translate(0,0)"/>
<path d="" fill="#41B883" transform="translate(0,0)"/>
<path d="" fill="#41B883" transform="translate(0,0)"/>
<path d="" fill="#41B883" transform="translate(0,0)"/>
<path d="" fill="#41B883" transform="translate(0,0)"/>
<path d="" fill="#41B883" transform="translate(0,0)"/>
<path d="" fill="#41B883" transform="translate(0,0)"/>
<path d="" fill="#41B883" transform="translate(0,0)"/>
<path d="" fill="#41B883" transform="translate(0,0)"/>
<path d="" fill="#41B883" transform="translate(0,0)"/>
<path d="" fill="#41B883" transform="translate(0,0)"/>
<path d="" fill="#41B883" transform="translate(0,0)"/>
<path d="" fill="#41B883" transform="translate(0,0)"/>
<path d="" fill="#41B883" transform="translate(0,0)"/>
<path d="" fill="#41B883" transform="translate(0,0)"/>
<path d="" fill="#41B883" transform="translate(0,0)"/>
<path d="" fill="#41B883" transform="translate(0,0)"/>
<path d="" fill="#41B883" transform="translate(0,0)"/>
<path d="" fill="#41B883" transform="translate(0,0)"/>
<path d="" fill="#41B883" transform="translate(0,0)"/>
<path d="" fill="#41B883" transform="translate(0,0)"/>
<path d="" fill="#41B883" transform="translate(0,0)"/>
<path d="" fill="#41B883" transform="translate(0,0)"/>
<path d="" fill="#41B883" transform="translate(0,0)"/>
<path d="" fill="#41B883" transform="translate(0,0)"/>
<path d="" fill="#41B883" transform="translate(0,0)"/>
<path d="" fill="#41B883" transform="translate(0,0)"/>
<path d="" fill="#41B883" transform="translate(0,0)"/>
<path d="" fill="#41B883" transform="translate(0,0)"/>
<path d="" fill="#41B883" transform="translate(0,0)"/>
<path d="" fill="#41B883" transform="translate(0,0)"/>
<path d="" fill="#41B883" transform="translate(0,0)"/>
<path d="" fill="#41B883" transform="translate(0,0)"/>
<path d="" fill="#41B883" transform="translate(0,0)"/>
<path d="" fill="#41B883" transform="translate(0,0)"/>
<path d="" fill="#35495E" transform="translate(0,0)"/>
<path d="" fill="#41B883" transform="translate(0,0)"/>
<path d="" fill="#35495E" transform="translate(0,0)"/>
<path d="" fill="#41B883" transform="translate(0,0)"/>
<path d="" fill="#35495E" transform="translate(0,0)"/>
<path d="" fill="#41B883" transform="translate(0,0)"/>
<path d="" fill="#35495E" transform="translate(0,0)"/>
<path d="" fill="#41B883" transform="translate(0,0)"/>
<path d="" fill="#35495E" transform="translate(0,0)"/>
<path d="" fill="#41B883" transform="translate(0,0)"/>
<path d="" fill="#35495E" transform="translate(0,0)"/>
<path d="" fill="#35495E" transform="translate(0,0)"/>
<path d="" fill="#41B883" transform="translate(0,0)"/>
<path d="" fill="#35495E" transform="translate(0,0)"/>
<path d="" fill="#41B883" transform="translate(0,0)"/>
<path d="" fill="#35495E" transform="translate(0,0)"/>
<path d="" fill="#41B883" transform="translate(0,0)"/>
<path d="" fill="#35495E" transform="translate(0,0)"/>
<path d="" fill="#35495E" transform="translate(0,0)"/>
<path d="" fill="#41B883" transform="translate(0,0)"/>
<path d="" fill="#35495E" transform="translate(0,0)"/>
<path d="" fill="#41B883" transform="translate(0,0)"/>
<path d="" fill="#35495E" transform="translate(0,0)"/>
<path d="" fill="#41B883" transform="translate(0,0)"/>
<path d="" fill="#41B883" transform="translate(0,0)"/>
<path d="" fill="#41B883" transform="translate(0,0)"/>
<path d="" fill="#41B883" transform="translate(0,0)"/>
<path d="" fill="#41B883" transform="translate(0,0)"/>
<path d="" fill="#41B883" transform="translate(0,0)"/>
<path d="" fill="#41B883" transform="translate(0,0)"/>
<path d="" fill="#41B883" transform="translate(0,0)"/>
<path d="" fill="#42B884" transform="translate(0,0)"/>
<path d="" fill="#41B883" transform="translate(0,0)"/>
<path d="" fill="#41B883" transform="translate(0,0)"/>
<path d="" fill="#41BA82" transform="translate(0,0)"/>
<path d="" fill="#41B883" transform="translate(0,0)"/>
</svg>
