<svg width="32" height="32" viewBox="0 0 32 32" fill="none" xmlns="http://www.w3.org/2000/svg">
<g id="file_type_apk">
<g id="Rectangle 25">
<g filter="url(#filter0_i_2273_69401)">
<path d="M2 4C2 1.79086 3.79086 0 6 0H21.4C22.4271 0 23.4149 0.395099 24.1586 1.10345L28.7586 5.4844C29.5513 6.23937 30 7.28624 30 8.38095V28C30 30.2091 28.2091 32 26 32H6C3.79086 32 2 30.2091 2 28V4Z" fill="url(#paint0_linear_2273_69401)" fill-opacity="0.06"/>
</g>
<path d="M2.5 4C2.5 2.067 4.067 0.5 6 0.5H21.4C22.2987 0.5 23.163 0.845712 23.8138 1.46552L28.4138 5.84647C29.1074 6.50707 29.5 7.42308 29.5 8.38095V28C29.5 29.933 27.933 31.5 26 31.5H6C4.067 31.5 2.5 29.933 2.5 28V4Z" stroke="#51E5B9" stroke-opacity="0.5"/>
</g>
<g id="apk">
<path id="&#232;&#183;&#175;&#229;&#190;&#132;" fill-rule="evenodd" clip-rule="evenodd" d="M22 19.9424V20.0377H10V19.9424C10.0043 17.965 10.9826 16.1167 12.6153 15.0012L11.5071 13.0847C11.2917 12.7459 11.4019 12.2958 11.7495 12.0949C12.0971 11.894 12.5421 12.0231 12.7282 12.3788L13.8824 14.3412C14.558 14.0803 15.2757 13.9452 16 13.9424C16.7243 13.9452 17.442 14.0803 18.1176 14.3412L19.2576 12.3683C19.4606 12.049 19.8791 11.9465 20.2066 12.1358C20.5341 12.3251 20.6542 12.7389 20.4788 13.0741L19.3847 14.9906C21.0205 16.1082 21.9992 17.9612 22 19.9424ZM13.5294 16.5083C13.1396 16.5083 12.8235 16.8243 12.8235 17.2141C12.8235 17.604 13.1396 17.92 13.5294 17.92C13.9193 17.92 14.2353 17.604 14.2353 17.2141C14.2353 16.8243 13.9193 16.5083 13.5294 16.5083ZM17.7647 17.2141C17.7647 16.8243 18.0807 16.5083 18.4706 16.5083C18.8604 16.5083 19.1765 16.8243 19.1765 17.2141C19.1765 17.604 18.8604 17.92 18.4706 17.92C18.0807 17.92 17.7647 17.604 17.7647 17.2141Z" fill="url(#paint1_linear_2273_69401)"/>
</g>
<path id="Rectangle 346240811" d="M3 28H29C29 29.6569 27.6569 31 26 31H6C4.34315 31 3 29.6569 3 28Z" fill="#5CDEBC" fill-opacity="0.5"/>
</g>
<defs>
<filter id="filter0_i_2273_69401" x="2" y="0" width="28" height="32" filterUnits="userSpaceOnUse" color-interpolation-filters="sRGB">
<feFlood flood-opacity="0" result="BackgroundImageFix"/>
<feBlend mode="normal" in="SourceGraphic" in2="BackgroundImageFix" result="shape"/>
<feColorMatrix in="SourceAlpha" type="matrix" values="0 0 0 0 0 0 0 0 0 0 0 0 0 0 0 0 0 0 127 0" result="hardAlpha"/>
<feOffset/>
<feGaussianBlur stdDeviation="5"/>
<feComposite in2="hardAlpha" operator="arithmetic" k2="-1" k3="1"/>
<feColorMatrix type="matrix" values="0 0 0 0 1 0 0 0 0 1 0 0 0 0 1 0 0 0 0.1 0"/>
<feBlend mode="normal" in2="shape" result="effect1_innerShadow_2273_69401"/>
</filter>
<linearGradient id="paint0_linear_2273_69401" x1="16" y1="16" x2="31.8584" y2="29.8761" gradientUnits="userSpaceOnUse">
<stop stop-color="#00DF9C"/>
<stop offset="1" stop-color="#1BC5BD"/>
</linearGradient>
<linearGradient id="paint1_linear_2273_69401" x1="16" y1="16.0188" x2="19.7164" y2="21.5673" gradientUnits="userSpaceOnUse">
<stop stop-color="#00DF9C"/>
<stop offset="1" stop-color="#1BC5BD"/>
</linearGradient>
</defs>
</svg>
